<?xml version="1.0" standalone="no"?>
<!DOCTYPE svg PUBLIC "-//W3C//DTD SVG 20010904//EN"
 "http://www.w3.org/TR/2001/REC-SVG-20010904/DTD/svg10.dtd">
<svg version="1.0" xmlns="http://www.w3.org/2000/svg"
 width="1024.000000pt" height="1024.000000pt" viewBox="0 0 1024.000000 1024.000000"
 preserveAspectRatio="xMidYMid meet">

<g transform="translate(0.000000,1024.000000) scale(0.100000,-0.100000)"
fill="#000000" stroke="none">
<path d="M2958 9415 c-2 -1 -41 -6 -88 -9 -174 -14 -346 -63 -513 -147 -88
-44 -207 -119 -243 -154 -6 -5 -37 -32 -69 -60 -65 -56 -173 -182 -227 -265
-171 -265 -249 -557 -227 -850 12 -153 13 -158 34 -245 39 -162 108 -321 201
-461 67 -101 235 -275 339 -352 165 -122 399 -217 606 -247 63 -9 119 -18 126
-20 8 -3 -6 -43 -41 -117 -106 -224 -186 -488 -221 -728 -21 -146 -30 -431
-16 -570 37 -392 113 -662 272 -969 38 -74 68 -138 67 -142 -2 -4 -39 -45 -82
-91 -220 -231 -335 -354 -466 -498 -58 -63 -130 -142 -161 -175 -30 -33 -71
-78 -91 -100 -19 -22 -73 -83 -119 -135 -289 -325 -363 -432 -417 -600 -32
-98 -55 -260 -38 -260 2 0 39 37 82 82 43 46 148 153 234 238 85 85 182 187
215 225 55 64 203 233 215 245 3 3 25 28 49 55 156 176 445 483 700 743 l44
45 19 -24 c139 -175 296 -328 470 -459 331 -251 701 -409 1123 -482 177 -30
607 -33 783 -5 574 92 1079 358 1472 774 l95 101 179 -144 c99 -79 196 -159
215 -177 20 -19 72 -56 116 -82 206 -126 622 -463 1210 -980 154 -136 213
-175 263 -175 38 0 111 48 154 101 58 72 59 77 29 136 -24 48 -64 83 -441 385
-399 319 -651 521 -885 712 -60 49 -132 114 -160 145 -45 49 -290 269 -404
362 l-44 35 90 180 c311 622 356 1324 127 1985 -19 57 -71 178 -115 268 l-79
163 29 33 c18 21 32 50 36 77 10 67 15 78 34 78 10 0 49 36 88 81 58 67 73 91
83 136 6 30 10 56 8 57 -1 2 -54 -7 -117 -20 -106 -21 -302 -49 -396 -56 -39
-3 -43 0 -138 98 l-98 102 33 19 33 19 65 -43 c83 -55 124 -68 146 -46 20 20
13 66 -22 142 l-24 54 37 31 c125 104 471 378 542 430 46 33 114 90 150 126
172 169 554 475 979 781 106 76 121 87 316 227 136 98 180 149 173 204 -7 51
-45 123 -92 175 l-40 44 -53 -11 c-45 -10 -78 -31 -225 -148 -220 -173 -411
-324 -584 -460 -76 -59 -190 -149 -253 -199 -63 -50 -141 -110 -172 -134 -31
-24 -101 -78 -155 -120 -55 -42 -115 -84 -134 -94 -79 -40 -510 -352 -695
-502 l-41 -33 -53 35 c-28 19 -63 35 -75 35 -53 0 -72 -96 -36 -176 l19 -42
-52 -50 -51 -51 -100 65 c-186 120 -429 230 -648 293 -272 78 -484 105 -771
98 -231 -6 -377 -25 -580 -77 -66 -17 -120 -29 -120 -28 -1 2 1 48 4 103 11
215 -21 416 -98 606 -75 187 -170 329 -322 479 -184 184 -406 304 -685 372
-87 21 -315 44 -327 33z m294 -129 c465 -98 834 -430 981 -881 54 -165 72
-357 52 -556 l-7 -67 -91 -37 c-311 -127 -610 -329 -856 -579 -88 -89 -119
-115 -135 -111 -12 2 -48 7 -81 10 -84 9 -343 52 -447 76 -48 10 -92 19 -97
19 -5 0 0 -28 11 -62 29 -89 138 -231 181 -238 29 -5 33 -10 48 -67 10 -34 20
-67 24 -74 5 -7 1 -9 -11 -6 -11 3 -39 9 -64 12 -25 4 -82 17 -128 30 -472
135 -821 515 -924 1005 -23 110 -27 309 -9 435 61 421 328 790 709 980 168 83
323 123 532 138 63 4 234 -11 312 -27z m3512 -1567 c14 -11 24 -25 21 -30 -10
-14 -23 -11 -45 13 -37 40 -21 52 24 17z m310 -441 c5 -9 7 -20 4 -23 -11 -11
-47 5 -59 26 -9 18 -8 20 17 17 15 -2 32 -11 38 -20z m-1857 -1534 c87 -4 164
-10 172 -14 8 -4 29 -1 46 7 30 14 33 13 195 -75 91 -48 278 -146 415 -217
l250 -128 11 -121 c25 -271 26 -286 14 -286 -6 0 -15 11 -21 24 -7 14 -29 31
-52 40 -39 15 -42 15 -64 -6 -19 -18 -26 -20 -48 -10 -14 7 -30 24 -36 39 -18
49 -49 73 -91 73 -21 0 -38 -3 -38 -6 0 -3 21 -33 46 -66 25 -33 42 -63 39
-66 -4 -4 -29 -7 -57 -7 -35 0 -52 -5 -59 -16 -8 -15 -14 -15 -71 7 -35 13
-80 34 -101 45 -46 24 -124 49 -131 41 -3 -3 6 -21 20 -39 14 -19 24 -36 22
-38 -1 -2 -42 4 -89 14 -74 14 -93 23 -135 58 -27 22 -77 52 -111 67 -34 14
-83 38 -110 54 -33 19 -75 33 -127 41 -74 11 -82 10 -148 -14 -39 -14 -73 -24
-75 -21 -3 2 0 14 7 25 6 12 8 21 5 21 -3 0 -45 -25 -94 -55 -138 -85 -321
-144 -321 -102 -1 35 -15 35 -135 6 l-120 -29 -19 24 -19 24 -61 -23 c-33 -12
-81 -25 -105 -29 l-44 -7 7 138 c4 76 12 139 16 141 84 31 600 303 802 423 73
43 106 57 123 53 13 -3 36 1 52 10 15 9 40 14 55 11 14 -2 97 -7 185 -11z
m1546 -643 c114 -52 363 -153 462 -185 44 -15 86 -29 94 -32 8 -2 11 -7 9 -10
-3 -3 -33 2 -66 10 -33 9 -84 16 -113 16 -66 0 -173 25 -214 49 -16 9 -79 32
-140 51 -60 18 -113 36 -116 39 -10 9 -18 101 -9 101 5 0 46 -18 93 -39z
m-3139 -74 l-7 -76 -131 1 c-125 0 -136 -2 -235 -36 l-104 -36 -131 15 c-72 8
-138 15 -145 15 -25 0 1 16 74 44 54 22 98 30 190 37 121 9 279 43 420 92 39
13 71 23 73 22 2 -2 0 -37 -4 -78z"/>
<path d="M2222 8878 c-7 -7 -12 -15 -12 -19 0 -4 -17 -38 -39 -76 -69 -123
-203 -367 -244 -443 -22 -41 -44 -80 -49 -87 -5 -7 -5 -13 1 -17 5 -3 27 27
49 66 22 40 62 114 89 163 28 50 67 122 88 160 21 39 41 75 45 80 4 6 29 49
54 98 43 79 49 106 18 75z"/>
<path d="M2217 8728 c-10 -18 -26 -46 -37 -63 -11 -16 -23 -36 -26 -44 -4 -8
-49 -85 -101 -173 -87 -149 -113 -203 -79 -168 15 16 276 464 276 474 0 17
-18 2 -33 -26z"/>
</g>
</svg>
